<?xml version="1.0" standalone="no"?>
<!DOCTYPE svg PUBLIC "-//W3C//DTD SVG 20010904//EN"
 "http://www.w3.org/TR/2001/REC-SVG-20010904/DTD/svg10.dtd">
<svg version="1.0" xmlns="http://www.w3.org/2000/svg"
 width="640.000000pt" height="640.000000pt" viewBox="0 0 640.000000 640.000000"
 preserveAspectRatio="xMidYMid meet">
<metadata>
Created by potrace 1.11, written by Peter Selinger 2001-2013
</metadata>
<g transform="translate(0.000000,640.000000) scale(0.100000,-0.100000)"
fill="#000000" stroke="none">
<path d="M3178 6065 c-2 -1 -25 -5 -53 -8 -123 -13 -235 -80 -269 -161 -11
-25 -26 -36 -73 -54 -32 -12 -75 -38 -96 -57 -34 -32 -114 -181 -103 -192 3
-3 1 -15 -4 -28 -5 -14 -5 -38 2 -62 6 -21 11 -58 11 -83 0 -25 3 -53 8 -62 5
-10 10 -41 10 -70 1 -29 7 -71 14 -94 8 -22 14 -65 14 -95 0 -30 12 -92 26
-139 22 -71 25 -102 24 -185 -2 -56 0 -106 4 -112 4 -6 -21 -19 -66 -33 -39
-13 -112 -38 -162 -57 -49 -19 -128 -45 -175 -57 -286 -76 -500 -314 -545
-606 -4 -24 -8 -47 -10 -50 -14 -23 -23 -917 -10 -985 3 -16 13 -59 22 -95 9
-36 16 -93 17 -127 2 -98 -2 -100 -239 -104 -130 -2 -188 -16 -256 -60 -121
-77 -253 -257 -294 -401 -23 -82 -28 -211 -10 -255 8 -20 15 -38 15 -40 0 -3
-22 -2 -49 2 -28 4 -59 4 -70 0 -24 -7 -61 -68 -61 -100 0 -48 21 -55 163 -56
73 0 159 -3 192 -5 92 -8 96 -8 160 0 104 14 253 19 545 17 47 0 99 -1 115 -2
45 -4 266 -4 390 0 61 2 126 1 145 -3 70 -13 108 -16 263 -22 133 -5 161 -4
181 10 19 12 38 14 88 8 65 -8 137 -7 468 2 294 9 404 17 418 31 2 1 24 -3 50
-9 33 -9 148 -12 392 -11 323 2 390 4 645 21 55 4 105 6 110 6 21 0 222 -14
260 -17 145 -14 198 -1 211 52 12 45 -14 77 -71 87 -28 6 -53 14 -56 19 -3 5
-6 57 -7 115 -1 239 -11 281 -98 392 -93 120 -171 169 -294 184 -73 9 -133 17
-160 22 -14 2 -41 7 -60 10 -50 7 -152 42 -175 59 -17 13 -19 28 -19 108 0 50
3 117 6 147 11 87 20 200 22 265 2 56 -17 195 -28 213 -14 23 -25 124 -31 277
-5 154 -12 216 -36 346 -66 363 -164 442 -791 635 -26 8 -55 14 -65 14 -11 0
-27 6 -36 13 -14 11 -15 17 -2 65 8 30 17 72 20 95 3 23 10 67 15 97 12 69 21
172 24 270 2 54 9 86 25 115 11 22 21 45 21 51 0 6 7 25 16 42 21 42 25 146 9
208 -25 97 -61 160 -109 194 -26 17 -46 35 -46 40 0 5 -22 19 -49 32 -32 14
-52 30 -55 44 -13 52 -103 105 -220 129 -10 3 -35 13 -56 24 -37 19 -106 42
-112 36z m-48 -92 c-28 -19 -42 -38 -50 -68 -4 -15 -15 -20 -45 -21 -22 -1
-59 -5 -82 -8 -50 -8 -54 2 -16 40 39 39 119 69 193 73 l24 1 -24 -17z m280
-47 c35 -19 66 -39 68 -46 3 -9 -1 -9 -18 0 -12 6 -42 13 -68 15 -26 2 -52 4
-57 4 -6 1 -16 15 -22 31 -10 28 -10 30 10 30 12 0 51 -15 87 -34z m-158 -4
c18 -21 -5 -35 -62 -37 -53 -3 -69 7 -50 30 21 25 94 30 112 7z m178 -92 c14
-5 39 -8 57 -9 17 0 42 -6 55 -14 13 -8 35 -17 50 -21 15 -3 29 -14 32 -24 3
-9 24 -27 46 -40 43 -24 89 -99 97 -157 2 -16 7 -41 12 -55 4 -14 2 -47 -4
-75 l-12 -50 -7 35 c-3 19 -8 58 -10 85 -2 28 -5 53 -5 56 -4 24 -141 135
-141 114 0 -4 -7 -2 -15 5 -8 7 -39 15 -68 17 -28 2 -72 7 -97 9 -25 3 -65 7
-90 9 -66 6 -262 7 -285 1 -91 -21 -115 -26 -151 -26 -28 0 -47 -6 -59 -20 -9
-10 -20 -19 -24 -18 -33 4 -71 -31 -71 -67 0 -14 -4 -25 -9 -25 -18 0 -41
-109 -46 -220 -7 -148 -18 -160 -17 -20 0 14 -4 27 -8 30 -12 7 -14 59 -5 103
6 29 4 42 -9 56 -13 14 -16 28 -10 57 8 49 49 134 83 174 34 40 141 80 219 81
31 0 81 4 110 8 28 4 75 4 104 1 30 -4 71 -2 97 5 48 12 139 10 181 -5z m-30
-180 c47 -7 99 -13 116 -14 44 -2 124 -43 154 -79 19 -24 24 -40 22 -78 -1
-26 2 -58 7 -71 5 -14 4 -41 -4 -70 -6 -26 -10 -50 -8 -52 5 -5 4 -122 -1
-161 -22 -159 -67 -265 -148 -346 -39 -37 -95 -79 -108 -79 -3 0 -5 16 -6 36
0 24 -7 42 -19 51 -30 21 -40 10 -37 -39 2 -32 -2 -51 -15 -67 -17 -21 -27
-23 -103 -22 -105 1 -117 3 -158 25 -39 20 -58 55 -44 82 12 25 5 44 -18 44
-23 0 -41 -30 -42 -70 -1 -26 -3 -28 -21 -18 -31 16 -45 28 -101 85 -72 72
-118 163 -133 258 -7 42 -7 63 2 160 3 33 7 94 8 135 2 41 7 90 11 109 13 54
55 131 73 131 9 0 25 7 34 16 10 9 32 18 49 20 16 2 42 6 58 9 100 22 299 24
432 5z m-624 -796 c28 -59 28 -110 -1 -134 -21 -17 -25 0 -21 85 1 39 -1 78
-6 88 -5 9 -6 17 -4 17 3 0 17 -25 32 -56z m874 -61 c-3 -27 -7 -51 -8 -55 -1
-5 -2 -15 -2 -24 0 -22 -26 -2 -33 25 -4 15 36 101 47 101 1 0 0 -21 -4 -47z
m-632 -158 c2 2 15 0 28 -5 35 -14 128 -22 234 -22 94 0 151 14 207 49 21 14
21 13 12 -27 -14 -60 -43 -113 -80 -144 -126 -107 -344 -111 -476 -10 -47 36
-57 60 -58 145 l-1 75 65 -33 c36 -18 67 -31 69 -28z m-169 -120 c17 -41 75
-99 119 -120 50 -22 69 -51 106 -159 26 -73 36 -91 51 -91 17 0 20 6 18 41 -1
22 -12 68 -26 101 l-24 60 86 -1 c47 -1 98 2 112 6 l26 8 -13 -58 c-8 -31 -14
-74 -14 -94 0 -34 3 -38 25 -38 14 0 26 3 26 8 1 4 3 23 5 42 2 19 11 65 20
101 12 52 21 69 40 78 45 20 112 91 133 141 17 39 27 50 44 50 13 0 28 -5 33
-10 10 -10 9 -1103 -1 -1155 -2 -11 -4 -31 -4 -44 -1 -21 -4 -23 -43 -17 -95
12 -141 29 -182 65 -49 43 -103 213 -110 347 -3 50 -11 64 -38 64 -19 0 -20
-4 -15 -73 11 -143 78 -353 125 -393 38 -34 120 -59 210 -66 36 -3 39 -12 18
-62 -18 -42 -85 -118 -98 -110 -5 3 -35 12 -66 19 -58 14 -352 14 -417 1 -16
-3 -40 -8 -52 -11 -17 -4 -27 5 -53 46 -47 77 -58 113 -35 114 75 5 184 58
248 120 72 68 88 122 92 297 2 97 1 107 -16 111 -23 6 -32 -7 -35 -48 -6 -73
-15 -164 -20 -186 -3 -13 -7 -35 -10 -48 -12 -58 -58 -112 -127 -147 -43 -23
-154 -52 -166 -45 -12 8 -39 126 -49 216 -8 74 -8 549 0 780 4 94 7 189 7 213
1 35 5 44 24 51 20 8 23 5 28 -33 3 -22 11 -54 18 -71z m-128 73 c2 -22 1 -64
-6 -348 -15 -550 -13 -599 25 -790 22 -115 46 -191 70 -230 9 -14 22 -38 30
-55 26 -53 104 -123 151 -135 72 -20 80 -21 196 -25 208 -8 329 48 423 195 17
27 33 55 34 62 2 7 6 20 9 28 37 98 39 129 42 720 1 324 6 554 11 553 50 -8
238 -58 313 -83 251 -83 415 -212 480 -376 17 -45 42 -155 57 -248 3 -21 8
-48 10 -60 2 -11 6 -86 9 -166 3 -80 8 -163 11 -185 3 -22 7 -51 9 -65 2 -14
8 -54 14 -90 13 -81 14 -110 2 -92 -16 26 -43 8 -58 -38 -20 -59 -58 -109
-116 -154 -26 -20 -47 -34 -47 -31 0 3 10 22 23 43 23 37 65 130 73 161 43
175 44 180 51 389 l6 182 -27 0 c-14 0 -26 -6 -27 -12 0 -7 -3 -71 -5 -143 -6
-198 -13 -258 -44 -373 -42 -153 -126 -275 -207 -300 -21 -6 -38 -10 -40 -8
-2 2 16 23 40 47 66 67 84 99 123 215 34 106 38 131 49 294 2 47 7 96 10 110
19 89 21 209 5 271 -9 33 -15 40 -33 37 -19 -3 -22 -8 -19 -38 9 -113 4 -252
-13 -338 -2 -13 -7 -60 -11 -105 -9 -112 -9 -117 -18 -157 -8 -35 -33 -96 -64
-159 -17 -34 -102 -135 -108 -128 -2 2 8 39 22 83 46 146 81 289 100 414 4 25
8 139 8 254 1 216 -4 243 -39 230 -16 -7 -17 -11 -17 -64 3 -207 1 -360 -3
-380 -2 -14 -6 -44 -9 -65 -2 -22 -11 -69 -21 -105 -9 -36 -19 -78 -22 -94
-22 -135 -121 -369 -169 -401 -35 -23 -46 -15 -29 20 76 162 82 182 100 350 4
33 13 87 21 119 9 33 17 82 19 110 7 84 8 687 2 693 -4 3 -16 3 -29 0 l-23 -6
-1 -338 c-1 -276 -4 -355 -19 -428 -18 -95 -20 -107 -35 -195 -16 -93 -20
-114 -24 -135 -7 -34 -52 -148 -74 -186 -38 -68 -47 -79 -59 -75 -7 3 -25 -5
-40 -18 -16 -12 -38 -25 -49 -28 -18 -5 -14 6 26 61 142 195 199 412 214 816
2 47 -9 75 -29 75 -22 0 -26 -14 -30 -123 -6 -153 -18 -263 -40 -364 -3 -13
-7 -33 -10 -45 -47 -214 -229 -477 -320 -462 -11 1 -33 5 -50 8 -16 2 -31 5
-32 6 -4 3 -18 7 -35 9 -7 2 10 11 39 21 127 45 213 112 276 215 50 82 55 100
33 108 -19 8 -45 -16 -94 -90 -23 -34 -57 -73 -75 -86 -45 -34 -159 -94 -214
-112 -43 -15 -182 -28 -288 -28 -61 1 -168 36 -215 71 -43 32 -114 107 -137
145 -20 31 -59 37 -65 10 -4 -17 91 -145 137 -186 23 -20 84 -54 134 -73 35
-14 34 -14 -34 -9 -72 6 -84 12 -147 80 -46 49 -97 139 -130 227 -16 46 -31
90 -33 98 -6 31 -27 107 -41 153 -12 35 -21 47 -35 47 -11 0 -22 -6 -25 -13
-3 -8 9 -63 26 -123 57 -200 85 -268 142 -352 56 -81 14 -51 -63 45 -25 31
-75 141 -93 203 -23 81 -34 155 -41 283 -5 90 -8 97 -36 90 -19 -5 -20 -11
-15 -62 11 -99 20 -150 47 -256 23 -89 82 -247 106 -284 l15 -24 -43 24 c-53
29 -101 103 -129 199 -33 110 -41 181 -45 415 -2 83 -3 156 -4 163 -1 8 -10
12 -23 10 -23 -3 -23 -4 -24 -186 -1 -228 5 -274 62 -482 l7 -25 -30 28 c-17
16 -38 53 -51 90 -25 71 -31 100 -47 227 -3 25 -9 68 -13 95 -8 60 -8 322 2
497 6 119 5 128 -13 137 -32 18 -38 -6 -40 -159 -6 -351 -3 -516 14 -615 22
-132 24 -143 40 -188 8 -23 13 -43 11 -44 -2 -2 -19 13 -39 33 -56 58 -116
183 -132 276 -3 17 -8 34 -10 38 -2 4 -7 22 -10 41 -3 19 -8 41 -10 49 -8 27
-20 109 -31 210 -2 19 -6 141 -9 270 -4 129 -8 241 -10 248 -6 18 -42 15 -47
-5 -6 -24 -1 -455 6 -523 7 -60 11 -89 26 -165 6 -27 12 -61 15 -75 3 -14 7
-37 10 -52 4 -15 8 -40 10 -56 6 -47 44 -150 71 -195 15 -23 54 -69 88 -101
33 -33 56 -57 51 -54 -13 8 -41 -13 -40 -31 0 -10 24 -20 75 -31 112 -25 147
-38 230 -85 41 -24 93 -52 115 -64 22 -11 34 -20 27 -21 -20 0 -72 -39 -151
-111 -40 -37 -83 -69 -95 -71 -36 -7 -138 22 -174 49 -48 36 -92 51 -136 46
-22 -2 -55 3 -75 11 -30 11 -43 12 -72 2 -33 -11 -71 -7 -88 10 -8 8 63 68
142 121 72 48 87 67 68 86 -8 8 -20 6 -47 -7 -30 -14 -144 -94 -164 -116 -3
-3 -22 -21 -43 -40 l-37 -34 2 52 c2 29 8 52 13 53 48 3 125 33 125 48 0 32
-11 39 -48 29 -20 -6 -50 -11 -67 -12 -29 -1 -31 1 -47 68 -10 38 -15 73 -12
78 3 4 39 -20 81 -54 70 -58 78 -62 126 -63 46 0 52 2 55 23 2 12 0 22 -5 23
-48 5 -77 16 -128 52 -86 59 -128 109 -132 156 -1 15 -5 51 -8 81 -13 151 -7
586 11 672 2 13 7 40 9 60 8 57 58 190 96 253 39 66 159 190 227 235 25 17 64
35 87 41 73 20 218 67 360 118 158 56 155 56 156 39z m1904 -1505 c-1 -54 -7
-118 -11 -143 -5 -25 -9 -117 -9 -206 l0 -161 -68 -28 c-78 -32 -121 -38 -158
-24 -21 8 -34 7 -60 -6 -35 -19 -103 -26 -134 -15 -18 7 -16 10 18 30 22 13
37 30 37 41 0 31 -41 23 -104 -20 -48 -32 -64 -38 -99 -35 -23 2 -54 9 -69 15
-15 6 -38 9 -52 5 -20 -5 -24 -2 -28 22 -3 15 -9 36 -14 47 -7 18 -6 18 21 -3
25 -20 30 -21 43 -8 21 20 9 41 -43 78 -51 36 -53 49 -3 23 18 -10 49 -26 68
-37 20 -10 56 -19 80 -21 42 -2 45 0 45 23 0 21 -6 25 -42 32 -48 8 -103 34
-103 49 0 19 159 87 233 100 39 6 76 15 80 19 4 4 40 1 80 -5 128 -22 247 -1
247 44 0 26 -18 31 -64 15 -21 -8 -62 -14 -90 -14 l-51 0 50 29 c92 53 185
169 185 231 0 11 4 20 9 20 5 0 8 -43 6 -97z m-1266 23 c58 -8 61 -12 14 -27
-60 -18 -320 -21 -362 -3 -19 8 -32 17 -29 19 3 3 34 8 69 11 35 3 65 7 67 9
5 4 189 -2 241 -9z m118 -476 c69 -21 135 -25 196 -11 31 8 39 6 47 -9 12 -23
20 -103 12 -117 -8 -12 -63 -30 -117 -39 -22 -3 -42 -7 -46 -9 -3 -2 -39 -7
-80 -11 -40 -3 -83 -10 -94 -14 -38 -13 -134 10 -136 34 -2 21 3 51 9 58 4 3
21 9 37 12 17 3 44 9 60 12 27 6 29 5 17 -9 -8 -9 -23 -17 -35 -19 -24 -3 -36
-36 -18 -48 35 -21 107 21 116 69 10 52 -91 97 -125 56 -12 -14 -16 -13 -41
11 -22 21 -26 31 -19 45 18 32 90 28 217 -11z m358 18 c14 -6 25 -16 25 -21 0
-6 -3 -8 -6 -4 -4 3 -13 0 -21 -8 -12 -12 -12 -21 -2 -55 12 -41 8 -55 -19
-62 -10 -2 -15 12 -18 50 -2 29 -8 61 -14 72 -22 40 1 53 55 28z m-956 -13
c44 -12 172 -12 221 -1 94 21 93 22 54 -29 -26 -35 -38 -39 -147 -49 -46 -4
-67 -20 -49 -38 6 -6 21 -13 32 -15 11 -2 36 -19 56 -38 37 -38 71 -45 81 -18
4 11 -1 22 -15 31 -29 19 -28 32 3 32 17 0 29 -9 39 -29 14 -26 14 -30 -4 -46
-23 -21 -71 -22 -142 -2 -29 8 -75 18 -103 21 -132 17 -182 36 -234 90 -29 30
-31 36 -20 55 30 47 125 62 228 36z m-947 -87 c38 -22 40 -22 53 -5 18 25 48
28 80 7 24 -16 31 -16 60 -4 30 12 37 11 84 -13 28 -15 49 -28 47 -31 -9 -8
-217 2 -279 14 -12 2 -49 9 -82 15 -70 13 -82 18 -64 30 24 15 60 10 101 -13z
m1286 -7 c-8 -12 -18 -18 -21 -14 -4 3 0 15 10 25 9 10 18 16 21 14 2 -3 -2
-14 -10 -25z m1527 -35 c17 -4 48 -10 70 -12 49 -5 116 -13 170 -19 70 -9 178
-47 234 -83 74 -49 163 -169 167 -226 1 -22 6 -52 10 -66 4 -14 8 -80 10 -147
l4 -123 -36 0 -36 0 22 35 c26 42 24 80 -5 80 -13 0 -25 -11 -34 -33 -10 -22
-30 -40 -64 -57 -27 -13 -54 -22 -60 -18 -5 3 4 11 21 19 17 7 44 27 61 44 30
32 71 123 71 159 0 34 -47 34 -54 0 -8 -40 -21 -76 -34 -97 -23 -36 -96 -73
-154 -78 l-53 -6 60 31 c93 46 122 77 151 158 16 45 10 162 -10 202 -22 42
-52 39 -48 -4 11 -136 10 -161 -7 -201 -32 -71 -112 -120 -233 -143 -27 -4
-48 -6 -48 -2 0 3 19 17 41 31 54 33 124 111 151 169 31 65 31 180 1 237 -30
56 -47 69 -66 50 -13 -13 -12 -21 9 -63 32 -64 37 -107 19 -170 -31 -107 -185
-218 -341 -247 -52 -10 -488 -31 -563 -27 -43 2 -73 17 -51 25 8 3 143 7 300
8 l285 3 47 28 c65 38 103 81 140 157 27 56 31 76 32 146 0 100 -23 164 -61
164 -27 0 -29 -15 -8 -68 58 -145 -30 -309 -195 -364 -43 -14 -170 -25 -170
-14 0 2 21 15 47 28 120 59 206 183 206 298 0 67 -23 120 -75 172 -21 21 -38
40 -38 42 0 11 37 11 60 1 14 -7 39 -15 55 -19z m-2111 5 c17 -19 16 -19 -21
-10 -21 5 -42 9 -46 9 -5 0 -5 5 -2 10 10 17 51 11 69 -9z m-799 -25 c17 -4
49 -11 72 -17 53 -11 186 -25 266 -28 l38 -1 -23 -30 c-34 -47 -31 -119 10
-199 18 -34 32 -67 32 -71 0 -11 -128 -5 -161 8 -69 27 -117 95 -123 175 -2
24 -8 33 -23 35 -21 3 -40 -28 -29 -46 3 -5 8 -22 10 -39 22 -123 98 -181 250
-191 79 -5 99 -13 90 -37 -6 -15 -29 -12 -169 19 -58 13 -138 51 -174 84 -48
44 -71 95 -71 157 0 49 -18 67 -44 45 -22 -17 -11 -104 20 -168 36 -74 126
-141 238 -176 10 -4 16 -9 14 -12 -10 -10 -170 36 -220 63 -27 15 -71 51 -97
79 -69 75 -83 139 -56 246 10 39 -21 50 -46 17 -10 -13 -16 -25 -14 -27 1 -2
-1 -19 -5 -38 -11 -46 9 -129 45 -190 30 -51 128 -156 142 -152 4 1 40 -8 78
-20 39 -12 86 -26 105 -31 l35 -9 -31 -1 c-52 -2 -185 37 -263 76 -84 43 -131
92 -153 161 -19 58 -16 159 6 202 21 42 20 66 -1 74 -32 13 -75 -73 -75 -149
0 -91 32 -212 67 -253 14 -16 54 -45 90 -63 36 -19 65 -38 65 -42 0 -5 -4 -6
-9 -3 -5 3 -32 8 -61 11 -166 17 -262 149 -255 349 3 74 -2 88 -32 92 -31 5
-37 -164 -8 -246 34 -97 134 -209 201 -226 33 -8 30 -24 -3 -25 -16 -1 -47 -2
-71 -4 -58 -3 -137 26 -177 65 -40 38 -73 110 -82 177 -7 60 -19 76 -44 63
-15 -8 -17 -19 -13 -61 8 -80 46 -175 84 -209 3 -3 12 -14 20 -25 12 -16 9
-15 -20 5 -45 31 -57 45 -81 99 -18 41 -27 69 -28 99 -1 12 -42 17 -53 6 -9
-9 17 -105 40 -151 12 -23 34 -54 49 -68 15 -14 24 -25 20 -25 -12 0 -97 49
-114 65 -36 37 -67 -3 -32 -41 11 -12 41 -33 65 -46 36 -19 55 -36 42 -38 -2
-1 -31 -3 -65 -6 l-61 -5 -17 58 c-10 32 -17 78 -16 102 3 86 49 221 100 287
9 12 23 32 31 45 8 13 45 54 82 92 72 72 128 103 212 115 61 9 358 7 401 -2z
m2213 -26 c82 2 80 3 76 -32 -6 -45 -41 -173 -66 -236 -34 -88 -148 -179 -245
-197 -16 -3 -38 -7 -50 -9 -13 -3 -23 -4 -23 -2 0 1 16 36 36 77 57 116 71
224 45 341 -8 35 -7 37 28 53 20 9 44 17 54 19 9 1 19 5 23 9 4 3 20 -1 36 -9
18 -9 52 -15 86 -14z m597 -27 c67 -69 65 -156 -4 -256 -24 -35 -52 -57 -115
-92 -109 -59 -160 -74 -281 -80 -99 -4 -100 -4 -51 10 27 7 70 17 95 20 116
15 173 44 248 124 95 102 114 215 50 305 l-20 28 21 -11 c12 -6 37 -28 57 -48z
m-235 26 c19 -1 49 2 65 6 25 5 36 2 58 -21 55 -55 50 -124 -17 -218 -70 -99
-121 -131 -225 -142 -20 -2 -58 -6 -84 -9 l-48 -4 7 47 c4 26 18 78 31 116 20
56 23 80 18 130 l-7 62 43 13 c23 7 51 14 62 17 11 2 22 6 25 9 3 3 13 3 21 0
9 -2 32 -5 51 -6z m-1970 -18 c0 -4 -5 -12 -11 -18 -34 -34 0 -265 51 -339 17
-23 30 -45 30 -48 0 -11 -69 3 -106 22 -68 35 -119 93 -162 183 -30 61 -28 97
7 150 26 38 36 45 73 49 68 8 118 8 118 1z m211 -33 c18 -47 91 -113 162 -148
119 -58 329 -98 417 -79 19 4 46 10 60 13 128 26 179 52 258 134 66 67 84 75
58 23 -57 -109 -214 -206 -391 -242 -33 -6 -114 -12 -180 -12 -190 0 -265 29
-340 131 -32 44 -66 123 -81 185 -9 40 20 36 37 -5z m163 -53 c120 -68 150
-75 295 -71 69 2 137 6 150 10 54 13 98 30 137 52 23 13 61 26 85 29 l44 6
-48 -45 c-95 -89 -304 -128 -467 -87 -104 25 -215 80 -270 132 -39 38 -58 69
-21 35 11 -10 54 -37 95 -61z m-310 -2 c-5 -288 304 -486 688 -441 213 25 392
111 472 227 29 42 65 127 70 169 17 131 32 128 40 -6 5 -77 -12 -149 -56 -233
-32 -60 -85 -125 -95 -115 -3 3 -16 1 -30 -5 -24 -9 -67 -18 -110 -24 -13 -2
-40 -6 -60 -9 -21 -3 -56 -8 -78 -10 -104 -12 -152 -18 -180 -22 -72 -11 -342
-13 -380 -3 -95 25 -127 42 -151 81 -14 21 -32 46 -40 56 -9 9 -33 45 -54 78
-57 91 -89 251 -60 305 19 34 25 21 24 -48z m1171 -90 c-23 -59 -84 -134 -149
-183 -75 -57 -132 -76 -350 -116 -56 -10 -170 -6 -243 10 -201 42 -352 176
-369 327 -2 24 -7 50 -9 57 -2 6 0 12 5 12 6 0 11 -4 11 -10 1 -5 2 -13 3 -18
4 -29 72 -144 105 -179 81 -85 152 -109 350 -118 139 -7 189 3 336 62 159 64
186 79 228 126 40 45 86 128 89 161 1 12 3 -4 5 -34 3 -34 -2 -70 -12 -97z
m-705 117 c112 -29 183 -29 220 -2 24 18 30 19 40 7 7 -8 19 -15 26 -15 22 0
16 -17 -8 -24 -99 -26 -253 -13 -343 30 l-50 23 40 -5 c22 -2 56 -9 75 -14z
m1155 -220 c-3 -5 -8 -18 -10 -27 -42 -202 -65 -248 -140 -286 -43 -21 -160
-20 -207 3 -31 15 -49 21 -100 35 -5 2 -16 3 -25 4 -34 3 33 30 89 36 173 18
284 75 351 182 21 35 41 63 44 63 2 0 1 -4 -2 -10z m-1676 -175 c91 -12 98
-15 117 -51 19 -35 19 -35 -1 -47 -50 -30 -153 -35 -195 -11 -34 21 -60 72
-67 136 l-6 49 53 -35 c33 -22 71 -38 99 -41z m296 -156 c2 -3 -32 -5 -75 -6
-44 0 -80 2 -80 5 0 2 10 14 23 26 l22 21 53 -21 c29 -12 54 -23 57 -25z m805
42 c0 -5 18 -12 40 -16 67 -11 52 -20 -38 -22 -48 -1 -128 -3 -179 -5 -99 -3
-112 6 -23 16 30 4 80 13 110 20 68 17 90 19 90 7z m-1256 -13 c-5 -7 -51 -5
-59 4 -3 2 11 4 29 4 19 0 32 -4 30 -8z m2511 -3 c30 -13 30 -13 5 -16 -68 -6
-242 -4 -246 3 -3 4 12 8 33 8 50 1 147 11 152 16 7 7 25 4 56 -11z m-2748 -2
c-5 -4 -95 -13 -192 -18 -55 -3 -113 -8 -130 -10 -16 -3 -52 -2 -80 2 l-50 7
75 10 c62 9 384 17 377 9z m2296 -7 c108 1 197 -1 197 -5 0 -4 -21 -9 -46 -9
-25 -1 -55 -7 -66 -13 -20 -11 -53 -10 -238 7 -36 3 -74 7 -85 9 -11 2 -23 4
-27 4 -5 1 -8 5 -8 10 0 4 17 5 38 2 20 -4 126 -6 235 -5z m771 -40 c28 -18
33 -38 13 -54 -7 -6 -56 -14 -109 -17 -53 -4 -109 -8 -123 -10 -35 -3 -40 13
-18 65 l18 42 97 -4 c68 -3 104 -10 122 -22z m-2722 -21 c23 -9 30 -47 13 -65
-12 -11 -54 -15 -206 -17 -107 -2 -197 1 -203 6 -11 9 -14 66 -4 77 3 2 68 7
144 10 77 3 140 7 142 8 3 4 94 -11 114 -19z m-920 -12 c8 -10 18 -30 22 -45
l6 -28 -77 1 c-43 0 -99 -4 -125 -9 -27 -5 -48 -9 -49 -8 0 0 -2 20 -4 44 -2
36 0 43 19 47 37 8 59 10 126 13 54 2 69 0 82 -15z m1432 -2 c15 -13 20 -78 6
-86 -22 -14 -409 4 -427 19 0 0 -3 17 -5 36 l-3 35 45 -4 c87 -9 285 1 298 13
6 7 74 -4 86 -13z m900 6 c39 -1 71 -7 73 -13 2 -6 -5 -21 -15 -34 -19 -23
-23 -24 -216 -25 -108 -1 -196 1 -197 4 -8 54 -2 65 36 73 18 3 147 1 319 -5z
m316 -1 c25 -3 86 -5 137 -6 76 -2 96 -6 113 -22 14 -13 18 -24 12 -30 -6 -6
-88 -9 -211 -6 -171 2 -203 5 -217 20 -21 21 -12 45 18 50 22 4 38 3 148 -6z
m681 1 c-1 -4 -1 -16 -1 -26 0 -10 -8 -22 -17 -25 -25 -10 -120 -19 -193 -19
-131 0 -137 1 -144 25 -3 13 -2 26 3 31 5 5 80 10 167 13 87 3 161 7 163 10 7
6 23 0 22 -9z m-3116 -10 c17 0 73 4 127 8 91 7 97 6 107 -13 14 -26 14 -28
-4 -46 -12 -12 -40 -14 -162 -9 -155 5 -186 13 -196 52 -5 19 -1 20 47 14 28
-3 65 -6 81 -6z m3695 2 c19 -4 57 -10 84 -13 55 -6 80 -21 57 -35 -19 -12
-299 2 -324 16 -4 2 -2 13 4 24 9 18 19 20 77 18 37 -1 83 -6 102 -10z m-1991
-19 c15 -30 6 -45 -30 -50 -36 -6 -273 -3 -319 4 -14 2 -33 4 -42 5 -13 1 -18
9 -18 29 l0 28 201 0 c168 -1 202 -3 208 -16z m-2324 -14 c22 1 58 5 79 9 42
7 57 -3 49 -36 -5 -19 -15 -20 -170 -17 -91 2 -166 5 -168 8 -2 3 0 12 4 19
12 18 67 28 121 21 25 -3 63 -5 85 -4z"/>
<path d="M3193 5529 c-27 -27 23 -83 52 -59 16 13 10 39 -13 58 -19 15 -25 15
-39 1z"/>
<path d="M3376 5458 c-52 -11 -97 -40 -118 -76 -15 -25 -15 -32 -4 -48 13 -18
16 -17 48 17 18 20 42 41 53 46 50 24 154 10 208 -29 33 -24 60 -17 55 14 -2
16 -20 31 -58 50 -60 31 -123 40 -184 26z"/>
<path d="M2881 5440 c-56 -19 -73 -34 -64 -57 7 -17 37 -17 72 1 33 18 92 23
146 12 74 -14 95 -44 89 -129 -4 -70 -30 -165 -52 -190 -28 -31 -22 -54 17
-70 63 -26 106 -42 116 -42 6 -1 33 11 60 25 38 21 51 33 53 53 3 23 0 27 -22
27 -14 0 -28 -5 -31 -10 -3 -6 -19 -17 -36 -25 -26 -14 -32 -14 -58 -1 -16 9
-31 12 -35 9 -12 -12 -6 25 14 82 26 76 40 216 25 253 -15 34 -30 46 -78 62
-62 20 -156 20 -216 0z"/>
<path d="M3496 5309 c-33 -18 -44 -19 -85 -9 -72 17 -141 -1 -141 -37 0 -19
27 -28 53 -16 15 7 41 7 82 -2 50 -10 66 -9 95 3 49 19 63 36 55 61 -8 25 -10
25 -59 0z"/>
<path d="M2854 5295 c-15 -11 -16 -15 -5 -29 7 -9 27 -16 43 -16 16 0 39 -5
50 -11 64 -34 201 21 153 61 -12 10 -24 9 -57 -5 -24 -9 -45 -16 -48 -15 -3 1
-13 6 -23 12 -30 16 -94 18 -113 3z"/>
<path d="M3218 4935 c-4 -4 -29 -9 -56 -10 -55 -3 -102 -28 -102 -55 0 -25 20
-30 52 -14 15 8 40 13 55 12 15 -1 42 1 60 6 24 5 42 2 81 -18 53 -27 62 -25
62 10 0 37 -126 95 -152 69z"/>
<path d="M2900 4612 c0 -37 77 -87 165 -107 50 -12 119 -12 185 1 19 3 44 8
56 10 57 10 99 32 99 50 0 20 -30 24 -85 11 -14 -3 -44 -10 -66 -15 -104 -24
-222 -4 -293 50 -31 24 -61 23 -61 0z"/>
<path d="M3941 4262 c-5 -10 -6 -24 -1 -33 10 -17 17 -51 26 -119 8 -65 8
-301 0 -326 -8 -25 17 -56 38 -48 8 3 16 20 19 37 5 35 1 373 -6 397 -2 8 -7
31 -11 50 -14 59 -45 79 -65 42z"/>
<path d="M4204 4266 c-3 -8 -4 -29 -2 -48 2 -28 7 -33 28 -33 21 0 25 5 26 30
1 46 -39 85 -52 51z"/>
<path d="M2126 4222 c-5 -9 0 -133 8 -196 3 -21 8 -80 11 -130 11 -172 14
-189 27 -197 7 -4 18 -3 26 3 10 9 12 37 7 127 -3 64 -8 130 -10 146 -2 17 -6
71 -10 120 -9 111 -9 107 -18 123 -9 14 -33 16 -41 4z"/>
<path d="M3853 4188 c-18 -21 -25 -145 -9 -151 25 -10 38 11 43 69 5 66 -13
108 -34 82z"/>
<path d="M2335 4170 c-4 -6 -3 -50 1 -98 10 -126 12 -174 13 -298 1 -89 4
-113 16 -118 33 -12 41 17 39 150 -2 186 -14 340 -29 364 -8 13 -32 13 -40 0z"/>
<path d="M2237 4143 c-2 -5 -3 -19 -3 -33 1 -36 43 -41 52 -6 3 14 3 30 -1 35
-7 13 -42 15 -48 4z"/>
<path d="M4197 4113 c-5 -15 -4 -61 1 -85 1 -5 11 -8 22 -8 39 0 42 103 3 108
-14 2 -23 -3 -26 -15z"/>
<path d="M1887 4017 c-15 -10 -17 -37 -17 -212 0 -202 2 -227 15 -324 11 -84
72 -276 116 -364 22 -43 59 -99 82 -124 43 -47 111 -88 127 -78 18 11 10 45
-13 54 -97 37 -196 218 -243 446 -13 64 -24 243 -26 443 -2 159 -8 184 -41
159z"/>
<path d="M3853 4018 c-6 -7 -11 -42 -11 -78 0 -36 -1 -65 -2 -65 -1 0 -3 -20
-5 -45 -8 -129 -19 -181 -79 -384 -14 -48 -28 -99 -30 -113 -22 -120 -99 -220
-221 -289 -155 -86 -291 -99 -470 -43 -148 45 -237 114 -294 228 -17 33 -29
61 -27 61 3 0 -4 25 -14 55 -26 76 -72 280 -86 385 -7 53 -10 59 -27 56 -26
-4 -35 -17 -31 -44 11 -63 45 -215 73 -324 17 -65 33 -129 35 -144 9 -49 102
-197 145 -231 18 -14 139 -75 186 -94 90 -35 301 -49 391 -25 127 34 259 121
319 211 22 32 116 304 129 370 2 11 9 38 15 61 26 98 43 245 45 399 1 47 -2
60 -15 63 -9 1 -20 -3 -26 -10z"/>
<path d="M1797 3463 c-13 -12 -7 -63 19 -161 57 -219 87 -290 145 -351 40 -42
148 -92 203 -94 35 -2 41 1 44 20 3 18 -5 24 -55 38 -100 29 -158 69 -189 127
-29 55 -113 309 -119 360 -4 29 -9 56 -12 61 -5 9 -27 9 -36 0z"/>
<path d="M3843 3342 c-6 -4 -15 -21 -19 -37 -4 -17 -9 -34 -13 -40 -3 -5 -6
-12 -7 -15 -5 -23 -40 -86 -69 -125 -104 -135 -233 -217 -380 -239 -16 -2 -50
-8 -74 -11 -42 -7 -166 -8 -226 -1 -104 10 -201 78 -299 209 -30 39 -44 45
-63 26 -15 -15 11 -57 79 -127 120 -124 247 -173 429 -166 181 7 372 63 454
135 76 67 185 230 221 331 11 32 11 40 -2 53 -18 17 -16 17 -31 7z"/>
<path d="M4424 2796 c-4 -9 -11 -16 -18 -15 -24 3 -36 -2 -36 -14 0 -22 67
-151 88 -170 18 -17 21 -17 36 -2 13 14 14 20 3 37 -24 40 -65 123 -61 127 1
1 9 -1 16 -5 21 -13 80 -15 94 -3 16 13 4 41 -20 45 -8 1 -34 5 -56 9 -32 5
-41 3 -46 -9z"/>
<path d="M4115 2753 c-8 -22 81 -108 119 -115 60 -12 133 65 103 106 -15 21
-47 11 -47 -14 0 -10 -6 -23 -14 -29 -17 -14 -41 -4 -96 41 -40 32 -55 35 -65
11z"/>
<path d="M690 823 c-42 -17 -55 -96 -21 -127 37 -33 88 -25 104 17 8 22 -10
22 -34 1 -10 -9 -25 -14 -33 -11 -20 8 -32 56 -19 76 13 20 43 27 53 11 4 -7
15 -10 25 -8 16 3 16 4 -2 23 -19 21 -47 28 -73 18z"/>
<path d="M1349 825 c-1 -3 -3 -9 -4 -15 -1 -5 -3 -14 -4 -19 0 -5 -9 -7 -20
-4 -44 11 -71 -72 -32 -99 11 -8 35 -12 53 -10 l33 4 -2 56 c-2 91 -3 92 -13
92 -5 0 -11 -2 -11 -5z m-6 -84 c6 -26 -7 -45 -27 -38 -19 7 -21 38 -4 55 14
14 24 8 31 -17z"/>
<path d="M1456 823 c-10 -10 -7 -131 4 -138 16 -10 70 -9 80 1 33 34 6 109
-36 101 -18 -3 -24 0 -24 14 0 20 -13 32 -24 22z m71 -92 c3 -19 -21 -36 -38
-25 -13 8 -11 38 3 52 14 14 30 2 35 -27z"/>
<path d="M1745 816 c-2 -6 -3 -38 -2 -71 2 -46 6 -60 17 -60 10 0 15 10 15 29
1 24 5 29 28 32 25 2 27 0 27 -32 0 -26 4 -34 18 -34 14 0 17 9 15 61 -1 34
-4 67 -7 75 -10 25 -26 15 -26 -17 0 -27 -3 -30 -27 -27 -23 2 -28 8 -28 29 1
25 -23 37 -30 15z"/>
<path d="M2168 776 c-4 -69 1 -96 18 -96 9 0 14 10 14 29 0 23 4 28 23 27 16
-1 23 -8 25 -28 2 -19 9 -28 22 -28 16 0 17 5 10 37 -5 21 -5 42 -1 48 9 10 7
43 -3 53 -3 3 -28 6 -55 8 l-49 2 -4 -52z m82 4 c0 -15 -6 -19 -22 -16 -34 5
-36 36 -4 36 19 0 26 -5 26 -20z"/>
<path d="M2426 823 c-3 -3 -6 -37 -6 -74 l0 -67 32 -4 c45 -7 68 10 68 50 0
39 -23 66 -50 59 -15 -4 -20 0 -20 13 0 20 -13 33 -24 23z m57 -68 c19 -19 10
-57 -12 -53 -17 3 -26 31 -17 54 7 18 11 18 29 -1z"/>
<path d="M2544 816 c-3 -7 -4 -40 -2 -72 2 -44 7 -59 18 -59 8 0 20 -4 27 -8
17 -11 41 2 50 26 11 33 10 40 -6 65 -10 17 -21 22 -38 19 -19 -3 -23 0 -23
19 0 26 -17 33 -26 10z m76 -85 c-1 -17 -19 -31 -33 -25 -20 7 -22 35 -5 52
10 10 15 9 25 -5 7 -9 13 -19 13 -22z"/>
<path d="M2669 803 c-5 -104 -4 -118 11 -118 17 0 23 68 8 97 -5 10 -4 19 2
23 12 7 4 25 -11 25 -5 0 -10 -12 -10 -27z"/>
<path d="M1103 804 c-15 -31 -4 -113 17 -124 20 -11 38 4 20 15 -13 8 -13 72
0 77 5 2 1 14 -9 27 -18 23 -19 23 -28 5z"/>
<path d="M2726 805 c-19 -19 -20 -31 -6 -40 6 -4 9 -20 6 -36 -5 -35 20 -67
38 -49 8 8 8 13 0 18 -12 7 -13 49 -3 67 3 6 0 20 -6 33 -12 21 -14 22 -29 7z"/>
<path d="M798 776 c-2 -6 -3 -29 -3 -51 0 -52 29 -57 31 -6 1 19 9 38 18 43 9
5 16 13 16 17 0 12 -59 9 -62 -3z"/>
<path d="M883 778 c-23 -29 -22 -60 2 -84 29 -29 36 -30 66 -3 l24 20 -39 -6
c-28 -5 -37 -3 -34 6 2 7 16 14 31 14 38 2 42 10 23 40 -18 27 -57 34 -73 13z
m50 -24 c-4 -13 -26 -11 -30 3 -2 6 4 10 14 9 10 -2 17 -7 16 -12z"/>
<path d="M991 776 c-16 -19 4 -32 24 -16 9 7 15 8 20 0 3 -5 -1 -12 -9 -15 -9
-3 -23 -7 -31 -10 -17 -5 -20 -36 -5 -51 13 -13 80 -5 81 10 4 47 -1 80 -12
87 -21 13 -55 11 -68 -5z m54 -56 c3 -6 -1 -13 -10 -16 -19 -8 -30 0 -20 15 8
14 22 14 30 1z"/>
<path d="M1178 778 c-45 -35 -14 -113 39 -99 40 11 44 35 4 26 -24 -5 -31 -3
-31 8 0 10 9 14 30 12 38 -3 46 9 26 40 -18 27 -43 32 -68 13z m46 -17 c3 -5
-1 -12 -10 -15 -20 -8 -29 -1 -19 13 8 13 22 14 29 2z"/>
<path d="M1570 783 c0 -3 8 -31 17 -60 14 -45 15 -56 4 -63 -9 -5 -10 -13 -5
-21 9 -14 16 -99 8 -99 -2 0 -15 20 -30 45 -39 68 -54 60 -54 -30 0 -59 3 -75
14 -75 11 0 16 14 18 47 l3 48 25 -48 c15 -29 32 -47 42 -47 16 0 18 10 18 70
0 56 -3 72 -16 77 -15 5 -15 8 -2 17 8 6 17 20 21 31 3 11 12 41 21 68 13 41
13 47 0 47 -8 0 -17 -13 -21 -30 -8 -43 -20 -45 -27 -5 -4 21 -13 35 -21 35
-8 0 -15 -3 -15 -7z"/>
<path d="M1898 779 c-26 -15 -24 -74 3 -92 23 -17 52 -12 71 10 10 13 7 14
-25 8 -25 -5 -37 -4 -37 4 0 6 5 12 10 12 6 1 15 3 20 4 6 1 17 3 25 4 34 3 2
61 -33 61 -9 0 -25 -5 -34 -11z m46 -18 c3 -5 -1 -12 -10 -15 -20 -8 -29 -1
-19 13 8 13 22 14 29 2z"/>
<path d="M1990 783 c0 -5 9 -31 20 -60 17 -44 17 -53 5 -63 -20 -17 -9 -33 14
-21 19 10 66 139 56 150 -8 7 -35 -28 -35 -46 0 -25 -18 -13 -23 17 -4 18 -13
30 -22 30 -8 0 -15 -3 -15 -7z"/>
<path d="M2323 783 c-14 -5 -18 -33 -5 -33 4 0 13 5 20 12 9 9 15 9 23 1 8 -8
1 -14 -25 -23 -20 -6 -36 -16 -36 -21 0 -21 21 -49 32 -43 6 4 23 7 38 6 26
-1 27 2 26 41 -1 23 -5 48 -9 55 -8 12 -41 15 -64 5z m41 -68 c-4 -8 -12 -15
-20 -15 -17 0 -18 17 -1 23 22 9 27 7 21 -8z"/>
<path d="M663 613 c-3 -10 -11 -21 -17 -25 -8 -6 -7 -11 2 -17 8 -4 13 -19 12
-32 -4 -44 0 -59 14 -59 10 0 13 11 12 40 -2 29 2 44 13 50 10 6 11 10 4 10
-7 0 -12 10 -10 21 3 27 -21 37 -30 12z"/>
<path d="M1220 553 c0 -55 3 -74 13 -71 6 3 13 18 15 34 2 16 5 35 8 43 7 22
35 -8 30 -34 -5 -26 8 -50 22 -41 11 6 8 78 -3 96 -4 7 -18 10 -31 7 -19 -3
-24 0 -24 18 0 13 -6 22 -15 22 -12 0 -15 -15 -15 -74z"/>
<path d="M2085 624 c-5 -2 -10 -34 -9 -71 1 -56 4 -69 18 -71 10 -2 17 2 15
10 -3 28 2 38 22 38 11 0 29 5 40 10 25 14 26 65 2 75 -22 9 -74 15 -88 9z
m72 -40 c7 -18 -14 -35 -34 -27 -7 3 -13 14 -13 24 0 24 38 26 47 3z"/>
<path d="M2412 619 c2 -7 10 -15 17 -17 8 -3 12 1 9 9 -2 7 -10 15 -17 17 -8
3 -12 -1 -9 -9z"/>
<path d="M1157 597 c-10 -15 -12 -29 -6 -39 4 -8 7 -25 4 -36 -5 -28 23 -58
39 -42 7 7 7 13 1 18 -6 4 -9 21 -8 37 8 87 -1 105 -30 62z"/>
<path d="M2688 601 c-10 -12 -13 -23 -8 -26 6 -4 10 -23 10 -44 0 -40 21 -68
40 -56 8 5 8 11 -1 21 -7 9 -9 29 -5 52 3 24 1 45 -7 56 -11 15 -13 15 -29 -3z"/>
<path d="M719 563 c-6 -43 1 -83 15 -83 6 0 13 15 14 33 2 19 11 39 24 48 15
12 17 18 8 24 -7 4 -16 2 -21 -6 -6 -10 -9 -11 -9 -1 0 24 -28 11 -31 -15z"/>
<path d="M813 582 c-20 -13 -26 -65 -10 -86 17 -23 60 -24 82 -2 19 18 14 74
-7 87 -16 11 -49 11 -65 1z m45 -24 c17 -17 15 -48 -4 -55 -23 -8 -38 12 -30
41 7 29 16 32 34 14z"/>
<path d="M920 534 c0 -38 4 -54 13 -54 8 0 14 15 15 37 5 67 32 70 32 2 0 -28
4 -39 15 -39 11 0 15 11 15 39 0 65 33 62 34 -3 1 -45 23 -43 28 3 5 58 -6 67
-84 68 l-68 0 0 -53z"/>
<path d="M1351 576 c-22 -26 -23 -64 -2 -85 19 -19 31 -21 64 -6 28 12 20 27
-12 20 -17 -3 -32 -2 -36 4 -3 6 -3 11 2 12 4 1 20 2 36 3 36 4 38 7 24 36
-14 29 -58 38 -76 16z m49 -20 c0 -8 -8 -13 -17 -11 -10 2 -20 4 -23 4 -7 2
23 21 33 21 4 0 7 -6 7 -14z"/>
<path d="M1660 571 c-23 -44 -7 -87 37 -95 44 -9 75 61 43 99 -18 22 -67 19
-80 -4z m58 -17 c12 -22 4 -54 -14 -54 -20 0 -34 31 -23 52 12 22 25 23 37 2z"/>
<path d="M1776 573 c-8 -25 1 -85 14 -93 14 -8 83 2 81 13 0 4 -1 27 -1 52 0
34 -4 45 -16 45 -9 0 -14 -8 -13 -17 4 -44 -2 -73 -15 -73 -18 0 -25 19 -22
58 2 35 -19 45 -28 15z"/>
<path d="M1897 581 c-3 -5 -2 -34 2 -89 2 -28 26 -4 27 26 1 65 39 62 39 -3 0
-20 5 -30 15 -30 11 0 15 10 14 38 -3 60 -9 67 -54 65 -23 -1 -42 -4 -43 -7z"/>
<path d="M2210 533 c0 -41 3 -53 16 -53 10 0 15 8 14 23 -4 42 0 57 15 57 8 0
15 6 15 13 0 8 -12 14 -30 14 -30 0 -30 -1 -30 -54z"/>
<path d="M2294 566 c-21 -33 -15 -68 15 -82 53 -27 100 30 67 80 -22 34 -60
34 -82 2z m64 -40 c-2 -13 -10 -21 -23 -21 -23 0 -32 30 -14 51 16 19 41 -1
37 -30z"/>
<path d="M2410 526 c0 -42 -4 -66 -11 -66 -8 0 -8 -5 1 -15 10 -12 16 -13 27
-4 18 16 14 140 -4 147 -10 3 -13 -14 -13 -62z"/>
<path d="M2477 578 c-27 -21 -29 -63 -4 -86 25 -22 52 -21 76 3 15 15 13 16
-21 10 -30 -6 -38 -4 -38 8 0 10 9 14 30 12 38 -3 46 9 26 40 -18 27 -43 32
-69 13z m46 -22 c4 -10 0 -14 -14 -13 -22 1 -25 13 -6 20 6 3 13 6 13 6 1 1 4
-5 7 -13z"/>
<path d="M2586 574 c-20 -19 -21 -68 -2 -83 24 -20 53 -20 71 -1 13 14 13 20
4 26 -7 4 -15 2 -17 -4 -7 -21 -31 -13 -38 12 -8 35 2 49 27 35 29 -15 45 -6
25 14 -22 21 -50 22 -70 1z"/>
</g>
</svg>
