<?xml version="1.0" standalone="no"?>
<!DOCTYPE svg PUBLIC "-//W3C//DTD SVG 20010904//EN"
 "http://www.w3.org/TR/2001/REC-SVG-20010904/DTD/svg10.dtd">
<svg version="1.0" xmlns="http://www.w3.org/2000/svg"
 width="640.000000pt" height="640.000000pt" viewBox="0 0 640.000000 640.000000"
 preserveAspectRatio="xMidYMid meet">
<metadata>
Created by potrace 1.11, written by Peter Selinger 2001-2013
</metadata>
<g transform="translate(0.000000,640.000000) scale(0.100000,-0.100000)"
fill="#000000" stroke="none">
<path d="M3178 6065 c-2 -1 -25 -5 -53 -8 -123 -13 -235 -80 -269 -161 -11
-25 -26 -36 -73 -54 -77 -29 -125 -75 -164 -158 -28 -60 -34 -81 -43 -134 -2
-8 1 -28 6 -45 6 -16 10 -52 10 -80 0 -27 5 -58 9 -67 5 -10 10 -41 10 -70 1
-29 7 -71 14 -94 8 -22 14 -65 14 -95 0 -30 10 -83 22 -119 18 -51 23 -90 25
-187 1 -67 5 -126 8 -131 3 -5 -27 -20 -67 -32 -39 -13 -112 -38 -162 -57 -49
-19 -128 -45 -175 -57 -102 -27 -167 -59 -253 -125 -97 -73 -161 -146 -211
-241 -47 -91 -64 -140 -81 -235 -18 -107 -22 -161 -25 -386 -7 -517 -3 -629
23 -732 26 -107 28 -200 4 -224 -19 -19 -25 -20 -222 -24 -130 -2 -188 -16
-256 -60 -121 -77 -253 -257 -294 -401 -23 -82 -28 -211 -10 -255 8 -20 15
-38 15 -40 0 -3 -22 -2 -49 2 -65 9 -85 1 -110 -41 -24 -41 -24 -92 0 -105 10
-5 73 -9 141 -9 67 0 152 -3 188 -6 96 -8 100 -8 165 0 104 14 253 19 545 17
47 0 99 -1 115 -2 45 -4 255 -3 385 0 63 2 131 1 150 -3 69 -13 107 -16 263
-22 134 -5 161 -4 181 10 19 12 37 14 88 8 65 -8 137 -7 468 2 294 9 404 17
418 31 2 1 24 -3 50 -9 33 -9 148 -12 392 -11 325 2 398 5 645 21 55 4 105 6
110 6 21 0 222 -14 260 -17 145 -14 198 -1 211 52 12 45 -14 77 -71 87 -28 6
-53 14 -56 19 -3 5 -6 57 -7 115 -1 239 -11 281 -98 392 -93 120 -171 169
-294 184 -73 9 -133 17 -160 22 -14 2 -41 7 -60 10 -50 7 -152 42 -175 59 -17
13 -19 28 -19 108 0 50 3 119 7 152 9 74 19 215 21 275 1 44 -18 183 -28 198
-14 23 -25 124 -31 277 -10 280 -53 496 -121 613 -74 126 -235 220 -549 318
-187 59 -203 64 -222 64 -11 0 -27 6 -36 13 -14 11 -15 17 -2 65 8 30 17 72
20 95 3 23 10 67 15 97 12 69 21 172 24 270 2 54 9 86 25 115 11 22 21 45 21
51 0 6 7 26 16 44 11 21 16 57 16 104 0 98 -5 121 -40 198 -24 51 -41 73 -77
98 -25 17 -45 35 -45 40 0 5 -22 19 -49 32 -32 14 -52 30 -55 44 -13 52 -103
105 -220 129 -10 3 -35 13 -56 24 -37 19 -106 42 -112 36z m-65 -106 c-18 -16
-33 -40 -35 -52 -2 -18 -10 -22 -43 -23 -22 -1 -59 -4 -82 -8 -50 -8 -54 2
-16 40 38 38 117 69 187 73 17 1 15 -4 -11 -30z m297 -33 c35 -19 66 -39 68
-46 3 -9 -1 -9 -18 0 -12 6 -42 13 -68 15 -26 2 -52 4 -57 4 -6 1 -16 15 -22
31 -10 28 -10 30 10 30 12 0 51 -15 87 -34z m-162 1 c19 -13 14 -24 -15 -35
-34 -13 -95 -10 -100 4 -10 31 77 54 115 31z m130 -92 c101 -8 143 -15 165
-29 12 -7 34 -16 49 -20 15 -3 29 -14 32 -24 3 -9 24 -27 46 -40 43 -24 89
-99 97 -157 2 -16 7 -41 12 -55 4 -14 2 -47 -4 -75 l-12 -50 -7 35 c-3 19 -8
58 -10 85 -2 28 -5 53 -5 56 -4 24 -141 135 -141 114 0 -4 -7 -2 -15 5 -8 7
-39 15 -68 17 -28 2 -72 7 -97 9 -115 12 -142 14 -245 14 -60 1 -119 -1 -130
-4 -11 -2 -40 -9 -65 -15 -25 -6 -63 -11 -86 -11 -28 0 -47 -6 -59 -20 -10
-11 -20 -18 -23 -15 -12 11 -62 -28 -68 -53 -3 -15 -14 -43 -24 -62 -24 -47
-29 -75 -35 -205 -8 -143 -18 -152 -17 -15 0 14 -4 27 -8 30 -12 7 -14 59 -5
103 6 29 4 42 -9 56 -13 14 -16 28 -10 57 8 45 45 125 80 171 52 68 212 99
479 91 24 -1 88 11 94 18 2 2 13 1 24 -2 10 -3 40 -8 65 -9z m22 -185 c47 -7
99 -13 116 -14 44 -2 124 -43 154 -79 19 -24 24 -40 22 -78 -1 -26 2 -58 7
-71 5 -14 4 -41 -4 -70 -6 -26 -10 -50 -8 -52 5 -5 4 -122 -1 -161 -22 -159
-67 -265 -148 -346 -39 -37 -95 -79 -108 -79 -3 0 -5 16 -6 36 0 24 -7 42 -19
51 -30 21 -40 10 -37 -39 2 -32 -2 -51 -15 -67 -17 -21 -27 -23 -103 -22 -105
1 -117 3 -158 25 -39 20 -58 55 -44 82 12 25 5 44 -18 44 -23 0 -41 -30 -42
-70 -1 -26 -3 -28 -21 -18 -51 27 -146 124 -176 180 -59 110 -71 177 -56 323
3 33 7 94 9 135 1 41 6 90 10 109 13 54 55 131 73 131 9 0 25 7 34 16 10 9 32
18 49 20 16 2 42 6 58 9 100 22 299 24 432 5z m-624 -796 c28 -59 28 -110 -1
-134 -21 -17 -25 0 -21 85 1 39 -1 78 -6 88 -5 9 -6 17 -4 17 3 0 17 -25 32
-56z m874 -61 c-3 -27 -7 -51 -8 -55 -1 -5 -2 -15 -2 -24 0 -22 -26 -2 -33 25
-4 15 36 101 47 101 1 0 0 -21 -4 -47z m-594 -168 c25 -3 56 -9 67 -11 12 -3
74 -5 137 -5 116 -1 166 10 227 49 22 13 22 13 13 -17 -5 -17 -7 -31 -4 -31
13 0 -50 -101 -77 -124 -126 -107 -344 -111 -476 -10 -47 36 -57 60 -58 145
l-1 75 63 -32 c35 -17 84 -35 109 -39z m-207 -110 c17 -41 75 -99 119 -120 50
-22 69 -51 106 -159 26 -73 36 -91 51 -91 13 0 21 8 23 22 3 21 -28 123 -49
164 -7 14 2 16 79 15 48 -1 98 3 111 8 23 8 24 7 17 -30 -4 -22 -10 -65 -13
-96 -6 -57 -6 -58 21 -58 14 0 27 3 27 8 1 4 3 23 5 42 2 19 11 65 20 101 12
52 21 69 40 78 45 20 112 91 133 141 17 39 27 50 44 50 13 0 28 -5 33 -10 10
-10 9 -1103 -1 -1155 -2 -11 -4 -31 -4 -44 -1 -21 -4 -23 -43 -17 -95 12 -141
29 -182 65 -49 43 -103 213 -110 347 -3 50 -11 64 -38 64 -19 0 -20 -4 -15
-73 11 -143 78 -353 125 -393 38 -34 120 -59 210 -66 36 -3 39 -12 18 -62 -18
-42 -85 -118 -98 -110 -5 3 -35 12 -66 19 -58 14 -352 14 -417 1 -16 -3 -40
-8 -52 -11 -17 -4 -27 5 -53 46 -47 77 -58 113 -35 114 75 5 184 58 248 120
72 68 88 122 92 297 2 97 1 107 -16 111 -23 6 -32 -7 -35 -48 -6 -73 -15 -164
-20 -186 -3 -13 -7 -35 -10 -48 -7 -35 -29 -73 -56 -98 -42 -39 -138 -83 -185
-85 -5 0 -15 -4 -24 -8 -8 -5 -20 -5 -27 -1 -13 8 -39 123 -50 216 -8 74 -8
551 0 780 4 94 7 189 7 213 1 35 5 44 24 51 20 8 23 5 28 -33 3 -22 11 -54 18
-71z m-128 73 c2 -22 1 -64 -6 -348 -15 -550 -13 -599 25 -790 22 -115 46
-191 70 -230 9 -14 22 -38 30 -55 26 -53 104 -123 151 -135 72 -20 80 -21 196
-25 207 -8 329 48 421 192 19 29 35 58 36 65 2 7 6 20 9 28 37 98 39 129 42
720 1 324 6 554 11 553 50 -8 238 -58 313 -83 251 -83 415 -212 480 -376 17
-45 42 -155 57 -248 3 -21 7 -48 10 -60 2 -11 6 -86 9 -166 3 -80 8 -163 11
-185 3 -22 7 -51 9 -65 2 -14 8 -54 14 -90 13 -81 14 -110 2 -92 -16 26 -43 8
-58 -38 -20 -59 -58 -109 -116 -154 -26 -20 -47 -34 -47 -31 0 3 10 22 23 43
23 37 65 130 73 161 43 175 44 180 51 389 l6 182 -27 0 c-14 0 -26 -6 -27 -12
0 -7 -3 -71 -5 -143 -6 -198 -13 -258 -44 -373 -42 -153 -126 -275 -207 -300
-21 -6 -38 -10 -40 -8 -2 2 16 23 40 47 66 67 84 99 123 215 34 106 38 131 49
294 2 47 7 96 10 110 19 89 21 209 5 271 -9 33 -15 40 -33 37 -19 -3 -22 -8
-19 -38 9 -113 4 -252 -13 -338 -2 -13 -7 -60 -11 -105 -9 -112 -9 -117 -18
-157 -8 -35 -33 -96 -64 -159 -17 -34 -102 -135 -108 -128 -2 2 8 39 22 83 46
146 81 289 100 414 4 25 8 139 8 254 1 216 -4 243 -39 230 -16 -7 -17 -11 -17
-64 3 -207 1 -360 -3 -380 -2 -14 -7 -44 -9 -65 -5 -47 -58 -266 -87 -362 -41
-134 -123 -264 -159 -251 -5 2 -3 17 5 33 76 162 82 182 100 350 4 33 13 87
21 119 9 33 17 82 19 110 7 84 8 687 2 693 -4 3 -16 3 -29 0 l-23 -6 -1 -338
c-1 -276 -4 -355 -19 -428 -18 -95 -20 -106 -35 -195 -24 -139 -23 -136 -39
-185 -23 -67 -72 -169 -94 -192 -11 -13 -28 -23 -37 -23 -9 0 -25 -9 -34 -19
-9 -10 -28 -21 -40 -23 -21 -4 -18 2 24 61 125 172 188 376 206 673 10 165 11
182 2 201 -10 19 -33 23 -43 7 -4 -6 -8 -57 -10 -113 -5 -153 -17 -261 -40
-364 -3 -13 -7 -33 -10 -45 -47 -214 -229 -477 -320 -462 -11 1 -33 5 -50 8
-16 2 -31 5 -32 6 -4 3 -18 7 -35 9 -7 2 10 11 39 21 127 45 213 112 276 215
50 82 55 100 33 108 -19 8 -45 -16 -94 -90 -23 -34 -57 -73 -75 -86 -45 -34
-159 -94 -214 -112 -43 -15 -182 -28 -288 -28 -61 1 -168 36 -215 71 -43 32
-114 107 -137 145 -20 31 -59 37 -65 10 -4 -17 91 -145 137 -186 23 -20 84
-54 134 -73 35 -14 34 -14 -34 -9 -72 6 -84 12 -147 80 -46 49 -97 139 -130
227 -16 46 -31 90 -33 98 -6 31 -27 107 -41 153 -12 35 -21 47 -35 47 -11 0
-22 -6 -25 -13 -2 -7 12 -69 31 -138 20 -68 38 -128 39 -134 14 -49 64 -153
96 -200 58 -84 18 -56 -61 42 -25 31 -75 141 -93 203 -23 81 -34 155 -41 283
-5 90 -8 97 -36 90 -22 -6 -22 -21 -4 -148 21 -143 97 -385 142 -454 l15 -24
-43 24 c-51 28 -100 102 -128 195 -33 103 -42 186 -46 409 -2 88 -3 166 -4
173 -1 14 -37 16 -46 2 -7 -11 -7 -253 0 -355 6 -80 30 -210 51 -268 20 -57
17 -64 -14 -34 -27 26 -65 117 -77 182 -9 51 -15 88 -19 125 -3 19 -8 62 -13
95 -9 71 -9 328 1 507 6 119 5 128 -13 137 -14 8 -22 7 -28 -2 -15 -18 -21
-516 -9 -662 6 -76 8 -94 22 -175 12 -70 15 -83 29 -123 8 -23 13 -43 11 -44
-2 -2 -19 13 -39 33 -56 58 -116 183 -132 276 -3 17 -8 34 -10 38 -2 4 -7 22
-10 41 -3 19 -8 41 -10 49 -8 27 -20 109 -31 210 -2 19 -6 141 -9 270 -4 129
-8 241 -10 248 -6 18 -42 15 -47 -5 -6 -24 -1 -455 6 -523 7 -60 11 -89 26
-165 6 -27 12 -61 15 -75 3 -14 7 -37 10 -52 4 -15 8 -40 10 -56 6 -47 44
-150 71 -195 15 -23 54 -69 88 -101 33 -33 56 -57 51 -54 -13 8 -41 -13 -40
-31 0 -10 24 -20 75 -31 110 -24 148 -38 220 -79 36 -21 86 -48 112 -61 46
-24 46 -24 22 -36 -37 -20 -56 -34 -133 -105 -40 -37 -83 -69 -95 -71 -36 -7
-138 22 -174 49 -48 36 -92 51 -136 46 -22 -2 -55 3 -75 11 -30 11 -43 12 -72
2 -33 -11 -71 -7 -88 10 -8 8 63 68 142 121 72 48 87 67 68 86 -8 8 -20 6 -47
-7 -30 -14 -144 -94 -164 -116 -3 -3 -22 -21 -43 -40 l-37 -34 2 52 c2 29 8
52 13 53 48 3 125 33 125 48 0 32 -11 39 -48 29 -20 -6 -50 -11 -67 -12 -29
-1 -31 1 -47 68 -10 38 -15 73 -12 78 3 4 39 -20 81 -54 70 -58 78 -62 126
-63 46 0 52 2 55 23 2 12 0 22 -5 23 -48 5 -77 16 -128 52 -33 23 -64 46 -70
52 -60 65 -59 62 -70 190 -14 151 -7 583 11 667 2 13 7 40 9 60 8 57 58 190
96 253 41 69 160 190 234 239 29 20 70 39 92 42 42 6 139 38 348 113 158 56
155 55 156 39z m1904 -1510 c-2 -57 -7 -116 -10 -133 -14 -66 -20 -288 -10
-346 4 -22 -3 -27 -65 -53 -80 -33 -124 -39 -161 -25 -21 8 -34 7 -60 -6 -35
-19 -103 -26 -134 -15 -17 6 -14 10 23 34 36 22 41 30 32 42 -19 22 -43 17
-104 -25 -48 -32 -64 -38 -99 -35 -23 2 -54 9 -69 15 -15 6 -39 8 -53 5 -21
-5 -25 -3 -25 14 0 24 -18 61 -33 72 -6 3 -16 0 -24 -8 -11 -11 -12 -21 -2
-54 12 -41 8 -55 -19 -62 -10 -2 -15 12 -18 50 -2 29 -8 61 -14 72 -15 28 -12
40 11 40 26 0 56 -16 98 -52 30 -26 35 -28 49 -15 21 21 10 42 -43 79 -51 36
-53 49 -3 23 18 -10 49 -26 68 -37 20 -10 56 -19 80 -21 42 -2 45 0 45 23 0
21 -6 25 -42 32 -47 8 -103 34 -103 48 0 20 146 83 233 101 49 10 91 20 93 22
2 2 34 -2 70 -9 120 -22 244 0 244 45 0 26 -18 31 -61 15 -33 -11 -89 -18
-129 -15 -8 1 8 14 35 30 92 53 185 169 185 231 0 11 4 20 9 20 6 0 8 -43 6
-102z m-1266 28 c25 -4 46 -8 49 -10 2 -3 -16 -11 -39 -18 -61 -18 -336 -18
-367 0 -13 8 -22 16 -19 18 2 2 33 7 68 11 35 3 65 7 67 8 5 4 193 -3 241 -9z
m118 -476 c69 -21 135 -25 196 -11 31 8 39 6 47 -9 12 -23 20 -103 12 -117
-13 -19 -136 -48 -252 -59 -36 -4 -74 -10 -85 -14 -56 -20 -142 18 -137 61 3
30 10 36 47 43 17 3 44 9 60 12 27 6 29 5 17 -9 -8 -9 -23 -17 -35 -19 -24 -3
-36 -36 -18 -48 35 -21 107 21 116 69 10 52 -91 97 -125 56 -12 -14 -16 -13
-41 11 -22 21 -26 31 -19 45 18 32 90 28 217 -11z m-598 5 c44 -12 172 -12
221 -1 94 21 93 22 54 -29 -26 -35 -38 -39 -147 -49 -46 -4 -67 -20 -49 -38 6
-6 21 -13 32 -15 11 -2 36 -19 56 -38 37 -38 71 -45 81 -18 4 11 -1 22 -15 31
-29 19 -28 32 3 32 17 0 29 -9 39 -29 14 -26 14 -30 -4 -46 -23 -21 -71 -22
-142 -2 -29 8 -75 18 -103 21 -132 17 -182 36 -234 90 -29 30 -31 36 -20 55
30 47 125 62 228 36z m-947 -87 c38 -22 40 -22 53 -5 18 25 48 28 80 7 24 -16
31 -16 60 -4 30 12 37 11 84 -13 28 -15 49 -28 47 -31 -9 -8 -217 2 -279 14
-12 2 -49 9 -82 15 -70 13 -82 18 -64 30 24 15 60 10 101 -13z m1286 -7 c-8
-12 -18 -18 -21 -14 -4 3 0 15 10 25 9 10 18 16 21 14 2 -3 -2 -14 -10 -25z
m1527 -35 c17 -4 48 -10 70 -12 49 -5 116 -13 170 -19 70 -9 178 -47 234 -83
74 -49 163 -169 167 -226 1 -22 6 -52 10 -66 4 -14 8 -80 10 -147 l4 -123 -36
0 -36 0 22 35 c26 42 24 80 -5 80 -13 0 -25 -11 -34 -33 -10 -22 -30 -40 -64
-57 -27 -13 -54 -22 -60 -18 -5 3 4 11 21 19 17 7 44 27 61 44 30 32 71 123
71 159 0 34 -47 34 -54 0 -8 -40 -21 -76 -34 -97 -23 -36 -96 -73 -154 -78
l-53 -6 60 31 c93 46 122 77 151 158 16 45 10 162 -10 202 -22 42 -52 39 -48
-4 11 -136 10 -161 -7 -201 -32 -71 -112 -120 -233 -143 -27 -4 -48 -6 -48 -2
0 3 19 17 41 31 54 33 124 111 151 169 31 65 31 180 1 237 -30 56 -47 69 -66
50 -13 -13 -12 -21 9 -63 32 -64 37 -107 19 -170 -31 -107 -185 -218 -341
-247 -52 -10 -488 -31 -563 -27 -43 2 -73 17 -51 25 8 3 143 7 300 8 l285 3
47 28 c65 38 103 81 140 157 27 56 31 76 32 146 0 100 -23 164 -61 164 -27 0
-29 -15 -8 -68 58 -145 -30 -309 -195 -364 -43 -14 -170 -25 -170 -14 0 2 21
15 48 28 72 35 163 132 186 198 38 106 19 197 -56 272 -21 21 -38 40 -38 42 0
11 37 11 60 1 14 -7 39 -15 55 -19z m-2111 5 c17 -19 16 -19 -21 -10 -21 5
-42 9 -46 9 -5 0 -5 5 -2 10 10 17 51 11 69 -9z m-804 -25 c103 -24 182 -36
290 -41 41 -2 76 -6 78 -9 1 -4 -6 -18 -15 -33 -29 -43 -23 -118 15 -192 18
-34 32 -67 32 -71 0 -11 -128 -5 -161 8 -69 27 -117 95 -123 175 -2 24 -8 33
-23 35 -21 3 -40 -28 -29 -46 3 -5 8 -22 10 -39 22 -123 98 -181 250 -191 79
-5 99 -13 90 -37 -6 -14 -21 -13 -119 8 -201 43 -295 123 -295 252 0 49 -18
67 -44 45 -22 -17 -11 -104 20 -168 36 -74 126 -141 238 -176 10 -4 16 -9 14
-12 -10 -10 -170 36 -220 63 -27 15 -71 51 -97 79 -69 75 -83 139 -56 246 10
39 -21 50 -46 17 -10 -13 -16 -25 -14 -27 1 -2 -1 -19 -5 -38 -11 -46 9 -129
45 -190 30 -51 128 -156 142 -152 4 1 40 -8 78 -20 39 -12 86 -26 105 -31 l35
-9 -31 -1 c-52 -2 -185 37 -263 76 -84 43 -131 92 -153 161 -19 58 -16 159 6
202 21 42 20 66 -1 74 -32 13 -75 -73 -75 -149 0 -91 32 -212 67 -253 14 -16
54 -45 90 -63 36 -19 65 -38 65 -42 0 -5 -4 -6 -9 -3 -5 3 -32 8 -61 11 -166
17 -262 149 -255 349 3 74 -2 88 -32 92 -31 5 -37 -164 -8 -246 34 -97 134
-209 201 -226 33 -8 30 -24 -3 -25 -16 -1 -47 -2 -71 -4 -58 -3 -137 26 -177
65 -40 38 -73 110 -82 177 -7 60 -19 76 -44 63 -43 -23 10 -213 76 -274 14
-13 25 -26 25 -30 0 -9 -60 33 -78 54 -26 30 -59 115 -61 158 -1 12 -42 17
-53 6 -9 -9 17 -105 40 -151 12 -23 34 -54 49 -68 15 -14 24 -25 20 -25 -12 0
-97 49 -114 65 -36 37 -67 -3 -32 -41 11 -12 41 -33 65 -46 36 -19 55 -36 42
-38 -2 -1 -31 -3 -65 -6 l-61 -5 -17 58 c-10 32 -17 78 -16 102 3 86 49 221
100 287 9 12 23 32 31 45 8 13 45 55 82 92 108 109 160 124 423 121 88 -1 171
-4 185 -8z m2218 -26 c82 2 80 3 76 -32 -6 -45 -41 -173 -66 -236 -34 -88
-148 -179 -245 -197 -16 -3 -38 -7 -50 -9 -13 -3 -23 -4 -23 -2 0 1 16 36 36
77 57 116 71 224 45 341 -8 35 -7 37 28 53 20 9 44 17 54 19 9 1 19 5 23 9 4
3 20 -1 36 -9 18 -9 52 -15 86 -14z m597 -27 c67 -69 65 -156 -4 -256 -24 -35
-52 -57 -116 -92 -119 -65 -148 -73 -285 -80 l-95 -5 49 15 c27 7 68 16 90 19
79 11 101 17 144 38 52 25 146 119 172 173 36 74 31 157 -13 219 l-20 28 21
-11 c12 -6 37 -28 57 -48z m-240 25 c11 -1 38 2 61 6 35 6 43 4 67 -20 55 -55
50 -125 -17 -218 -70 -99 -121 -131 -225 -142 -20 -2 -58 -6 -84 -9 l-48 -4 7
47 c4 26 18 78 31 116 20 56 23 80 18 130 l-7 62 43 13 c23 7 51 14 62 17 11
2 22 6 25 9 3 2 14 2 26 -1 12 -3 30 -5 41 -6z m-1965 -17 c0 -4 -5 -12 -11
-18 -34 -34 0 -265 51 -339 17 -23 30 -45 30 -48 0 -11 -69 3 -106 22 -68 35
-119 93 -162 183 -30 61 -28 97 7 150 26 38 36 45 73 49 68 8 118 8 118 1z
m211 -33 c18 -47 91 -113 162 -148 119 -58 329 -98 417 -79 19 4 46 10 60 13
128 26 179 52 258 134 66 67 84 75 58 23 -57 -109 -214 -206 -391 -242 -33 -6
-114 -12 -180 -12 -190 0 -265 29 -340 131 -32 44 -66 123 -81 185 -9 40 20
36 37 -5z m-147 -50 c-6 -337 394 -537 835 -417 152 41 264 109 325 198 29 42
65 127 70 169 17 131 32 128 40 -6 5 -77 -12 -149 -56 -233 -32 -60 -85 -125
-95 -115 -3 3 -16 1 -30 -5 -24 -9 -67 -18 -110 -24 -13 -2 -40 -6 -60 -9 -21
-3 -56 -8 -78 -10 -93 -11 -152 -18 -180 -21 -16 -3 -89 -8 -161 -11 -204 -10
-331 20 -372 89 -11 20 -28 44 -37 54 -96 105 -157 323 -109 391 8 12 16 22
17 22 1 0 1 -33 1 -72z m310 -3 c120 -68 150 -75 295 -71 69 2 137 6 150 10
54 13 98 30 137 52 23 13 61 26 85 29 l44 6 -48 -45 c-95 -89 -304 -128 -467
-87 -107 26 -213 78 -268 130 -41 39 -61 71 -23 37 11 -10 54 -37 95 -61z
m861 -92 c-23 -59 -84 -134 -149 -183 -75 -57 -132 -76 -350 -116 -56 -10
-170 -6 -243 10 -201 42 -349 173 -369 326 -3 25 -7 51 -9 58 -3 6 0 12 5 12
6 0 11 -4 11 -10 1 -5 2 -13 3 -18 4 -29 72 -144 105 -179 81 -85 152 -109
352 -118 142 -7 175 0 358 73 121 48 152 64 191 103 47 46 98 134 102 173 1
12 3 -4 5 -34 3 -34 -2 -70 -12 -97z m-705 117 c112 -29 183 -29 220 -2 24 18
30 19 40 7 7 -8 19 -15 26 -15 22 0 16 -17 -8 -24 -99 -26 -253 -13 -343 30
l-50 23 40 -5 c22 -2 56 -9 75 -14z m1155 -220 c-3 -5 -8 -18 -10 -27 -42
-202 -65 -248 -140 -286 -43 -21 -160 -20 -207 3 -31 15 -49 21 -100 35 -5 2
-16 3 -25 4 -34 3 33 30 89 36 173 18 280 73 349 181 23 35 44 64 46 64 2 0 1
-4 -2 -10z m-1676 -175 c91 -12 98 -15 117 -51 19 -35 19 -35 -1 -47 -50 -30
-153 -35 -195 -11 -34 21 -60 72 -67 136 l-6 49 53 -35 c33 -22 71 -38 99 -41z
m296 -156 c2 -3 -32 -5 -75 -6 -44 0 -80 2 -80 5 0 2 10 14 23 26 l22 21 53
-21 c29 -12 54 -23 57 -25z m805 42 c0 -5 18 -12 40 -16 67 -11 53 -21 -28
-19 -42 1 -86 -2 -97 -6 -11 -4 -58 -4 -105 0 -47 4 -71 8 -55 9 46 3 95 11
155 25 68 17 90 19 90 7z m-1256 -13 c-5 -7 -51 -5 -59 4 -3 2 11 4 29 4 19 0
32 -4 30 -8z m2511 -3 c25 -11 27 -14 10 -16 -56 -6 -247 -4 -251 3 -3 4 12 8
33 8 50 1 147 11 152 16 7 7 25 4 56 -11z m-2749 -2 c-1 -1 -24 -5 -52 -8 -44
-5 -94 -8 -297 -20 -94 -5 -112 8 -27 20 64 8 384 16 376 8z m2297 -7 c108 1
197 -1 197 -5 0 -4 -21 -9 -46 -9 -25 -1 -55 -7 -66 -13 -20 -11 -53 -10 -238
7 -36 3 -74 7 -85 9 -11 2 -23 4 -27 4 -5 1 -8 5 -8 10 0 4 17 5 38 2 20 -4
126 -6 235 -5z m771 -40 c28 -18 33 -38 13 -54 -7 -6 -56 -14 -109 -17 -53 -4
-109 -8 -123 -10 -35 -3 -40 13 -18 65 l18 42 97 -4 c68 -3 104 -10 122 -22z
m-2722 -21 c23 -9 30 -47 13 -65 -12 -11 -54 -15 -206 -17 -106 -2 -197 1
-203 6 -11 9 -14 66 -4 77 3 2 68 7 144 10 77 3 140 7 142 8 3 4 94 -11 114
-19z m-920 -12 c8 -10 18 -30 22 -45 l6 -28 -77 1 c-43 0 -99 -4 -125 -9 -27
-5 -48 -9 -49 -8 0 0 -2 20 -4 44 -2 36 0 43 19 47 37 8 59 10 126 13 54 2 69
0 82 -15z m1432 -2 c15 -13 20 -78 6 -86 -22 -14 -409 4 -427 19 0 0 -3 17 -5
36 l-3 35 45 -4 c87 -9 285 1 298 13 6 7 74 -4 86 -13z m895 6 c43 -1 76 -7
78 -13 2 -6 -5 -21 -15 -34 -19 -23 -23 -24 -216 -25 -108 -1 -196 1 -197 4
-8 54 -2 65 36 73 18 3 99 2 314 -5z m321 -1 c25 -3 86 -5 137 -6 76 -2 96 -6
113 -22 14 -13 18 -24 12 -30 -6 -6 -88 -9 -211 -6 -171 2 -203 5 -217 20 -21
21 -12 45 18 50 22 4 38 3 148 -6z m681 1 c-1 -4 -1 -16 -1 -26 0 -10 -8 -22
-17 -25 -38 -15 -170 -23 -294 -17 -31 1 -38 5 -43 27 -4 15 -5 28 -3 31 3 2
78 6 168 9 90 3 166 7 168 10 7 6 23 0 22 -9z m-3121 -10 c14 0 71 3 127 7 96
7 102 7 112 -12 14 -26 14 -28 -4 -46 -12 -12 -40 -14 -162 -9 -155 5 -186 13
-196 52 -5 20 -2 21 46 14 29 -3 63 -6 77 -6z m3700 2 c19 -4 57 -10 84 -13
55 -6 80 -21 57 -35 -19 -12 -299 2 -324 16 -4 2 -2 13 4 24 9 18 19 20 77 18
37 -1 83 -6 102 -10z m-1991 -19 c15 -30 6 -45 -30 -51 -36 -5 -273 -2 -319 5
-14 2 -33 4 -42 5 -13 1 -18 9 -18 29 l0 28 201 0 c168 -1 202 -3 208 -16z
m-2329 -15 c19 1 55 4 79 9 48 9 63 -1 53 -36 -4 -18 -13 -19 -171 -16 -91 2
-165 7 -163 11 1 4 2 11 2 16 0 17 51 27 108 21 32 -3 73 -5 92 -5z"/>
<path d="M3193 5529 c-27 -27 23 -83 52 -59 16 13 10 39 -13 58 -19 15 -25 15
-39 1z"/>
<path d="M3376 5458 c-52 -11 -97 -40 -118 -76 -15 -25 -15 -32 -4 -48 13 -18
16 -17 48 17 18 20 42 41 53 46 50 24 154 10 208 -29 33 -24 60 -17 55 14 -2
16 -20 31 -58 50 -60 31 -123 40 -184 26z"/>
<path d="M2881 5440 c-56 -19 -73 -34 -64 -57 7 -17 37 -17 72 1 33 18 92 23
146 12 74 -14 95 -44 89 -129 -4 -70 -30 -165 -52 -190 -29 -32 -22 -54 22
-72 23 -9 56 -23 74 -31 32 -14 37 -13 90 13 46 23 58 34 60 56 3 23 0 27 -22
27 -13 0 -26 -3 -28 -7 -1 -5 -17 -16 -35 -26 -29 -16 -35 -16 -61 -3 -16 8
-32 12 -36 9 -12 -12 -6 25 14 82 26 76 40 216 25 253 -15 34 -30 46 -78 62
-62 20 -156 20 -216 0z"/>
<path d="M3498 5309 c-25 -13 -47 -17 -65 -13 -84 18 -148 9 -160 -21 -10 -27
13 -41 46 -29 20 8 44 8 87 -1 48 -10 65 -9 94 3 49 19 63 36 55 61 -8 25 -10
25 -57 0z"/>
<path d="M2854 5295 c-15 -11 -16 -15 -5 -29 7 -9 27 -16 43 -16 16 0 39 -5
50 -11 64 -34 201 21 153 61 -12 10 -24 9 -57 -5 -24 -9 -45 -16 -48 -15 -3 1
-13 6 -23 12 -30 16 -94 18 -113 3z"/>
<path d="M3218 4934 c-4 -4 -29 -8 -55 -8 -54 -2 -103 -29 -103 -56 0 -25 20
-30 52 -14 15 8 40 13 55 12 15 -1 43 1 61 6 26 6 43 3 81 -18 52 -27 61 -25
61 10 0 38 -127 95 -152 68z"/>
<path d="M2900 4612 c0 -37 77 -87 165 -107 50 -12 119 -12 185 1 19 3 44 8
56 10 57 10 99 32 99 50 0 20 -30 24 -85 11 -14 -3 -43 -9 -65 -15 -42 -9
-165 -9 -202 1 -28 7 -62 25 -92 48 -31 24 -61 25 -61 1z"/>
<path d="M3943 4264 c-3 -9 -1 -37 6 -63 6 -25 14 -64 17 -86 8 -61 8 -307 0
-331 -8 -25 17 -56 38 -48 8 3 16 20 19 37 5 35 1 373 -6 397 -2 8 -7 31 -11
50 -13 57 -48 82 -63 44z"/>
<path d="M4204 4266 c-3 -8 -4 -29 -2 -48 2 -28 7 -33 28 -33 21 0 25 5 26 30
1 46 -39 85 -52 51z"/>
<path d="M2126 4222 c-5 -9 0 -133 8 -196 3 -21 8 -80 11 -130 11 -172 14
-189 27 -197 7 -4 18 -3 26 3 10 9 12 37 7 127 -3 64 -8 130 -10 146 -2 17 -6
71 -10 120 -9 111 -9 107 -18 123 -9 14 -33 16 -41 4z"/>
<path d="M3840 4163 c-1 -16 -3 -49 -5 -75 -4 -47 8 -65 34 -49 14 9 25 92 17
126 -9 36 -46 34 -46 -2z"/>
<path d="M2335 4170 c-4 -6 -3 -50 1 -98 10 -126 12 -174 13 -298 1 -89 4
-113 16 -118 33 -12 41 17 39 150 -2 186 -14 340 -29 364 -8 13 -32 13 -40 0z"/>
<path d="M2237 4143 c-2 -5 -3 -19 -3 -33 1 -36 43 -41 52 -6 3 14 3 30 -1 35
-7 13 -42 15 -48 4z"/>
<path d="M4197 4113 c-5 -15 -4 -61 1 -85 1 -5 11 -8 22 -8 39 0 42 103 3 108
-14 2 -23 -3 -26 -15z"/>
<path d="M1887 4017 c-15 -10 -17 -37 -17 -212 0 -202 2 -227 15 -324 11 -84
72 -276 116 -364 22 -43 59 -99 82 -124 43 -47 111 -88 127 -78 18 11 10 45
-13 54 -97 37 -196 218 -243 446 -13 64 -24 243 -26 443 -2 159 -8 184 -41
159z"/>
<path d="M3853 4018 c-6 -7 -11 -40 -11 -73 -4 -188 -18 -269 -86 -499 -14
-48 -28 -99 -30 -113 -22 -120 -98 -219 -219 -287 -157 -88 -291 -101 -472
-45 -148 45 -237 114 -294 228 -17 33 -29 61 -27 61 3 0 -4 25 -14 55 -19 55
-63 243 -76 320 -3 22 -8 47 -9 55 -2 8 -4 25 -4 36 -1 26 -28 39 -46 24 -8
-6 -12 -22 -9 -36 15 -87 39 -193 73 -326 17 -65 33 -129 35 -144 9 -49 102
-197 145 -231 19 -15 163 -85 206 -101 81 -29 291 -39 370 -18 129 34 262 122
321 211 21 33 116 305 128 370 2 11 9 38 15 61 26 98 43 245 45 399 1 47 -2
60 -15 63 -9 1 -20 -3 -26 -10z"/>
<path d="M1797 3463 c-13 -12 -7 -63 19 -161 57 -219 87 -290 145 -351 40 -42
148 -92 203 -94 35 -2 41 1 44 19 2 16 -4 24 -27 32 -17 6 -31 9 -31 7 0 -3
-26 7 -57 21 -63 27 -107 64 -129 106 -29 55 -113 309 -119 360 -4 29 -9 56
-12 61 -5 9 -27 9 -36 0z"/>
<path d="M3843 3342 c-6 -4 -15 -21 -19 -37 -4 -17 -9 -34 -13 -40 -3 -5 -6
-12 -7 -15 -5 -23 -40 -86 -70 -126 -102 -134 -232 -216 -379 -238 -16 -2 -50
-8 -74 -11 -42 -7 -166 -8 -226 -1 -104 10 -201 78 -299 209 -30 39 -44 45
-63 26 -15 -15 11 -57 79 -127 120 -124 247 -173 429 -166 181 7 372 63 454
135 76 67 185 230 221 331 11 32 11 40 -2 53 -18 17 -16 17 -31 7z"/>
<path d="M4424 2796 c-4 -9 -11 -16 -18 -15 -46 6 -46 -7 -2 -97 42 -85 65
-109 88 -91 18 13 18 11 -31 107 -30 57 -31 68 -9 54 21 -13 80 -15 94 -3 16
13 4 41 -20 45 -8 1 -34 5 -56 9 -32 5 -41 3 -46 -9z"/>
<path d="M4115 2753 c-8 -22 81 -108 119 -115 60 -12 133 65 103 106 -15 21
-47 11 -47 -14 0 -10 -6 -23 -14 -29 -17 -14 -41 -4 -96 41 -40 32 -55 35 -65
11z"/>
</g>
</svg>
